<?xml version="1.0" standalone="no"?>
<!DOCTYPE svg PUBLIC "-//W3C//DTD SVG 20010904//EN"
 "http://www.w3.org/TR/2001/REC-SVG-20010904/DTD/svg10.dtd">
<svg version="1.0" xmlns="http://www.w3.org/2000/svg"
 width="400.000000pt" height="400.000000pt" viewBox="0 0 400.000000 400.000000"
 preserveAspectRatio="xMidYMid meet">
<metadata>
Created by potrace 1.14, written by Peter Selinger 2001-2017
</metadata>
<g transform="translate(0.000000,400.000000) scale(0.100000,-0.100000)"
fill="#000000" stroke="none">
<path d="M1410 3768 c0 -5 -4 -7 -9 -4 -17 11 -52 -29 -61 -68 -5 -21 -6 -73
-4 -115 9 -141 10 -441 2 -441 -4 0 -5 -6 -2 -14 3 -8 0 -17 -5 -21 -6 -3 -9
-11 -6 -16 4 -5 1 -9 -4 -9 -6 0 -11 -7 -11 -15 0 -7 -8 -19 -17 -24 -10 -6
-14 -11 -9 -11 21 0 -116 -118 -164 -140 -30 -14 -57 -28 -60 -32 -3 -4 -38
-24 -79 -46 -40 -21 -81 -47 -92 -56 -11 -9 -23 -16 -27 -16 -4 0 -18 -20 -31
-45 -13 -26 -37 -55 -52 -66 -17 -12 -34 -39 -45 -72 -9 -28 -20 -56 -24 -62
-10 -14 -22 -63 -26 -107 -1 -20 -7 -45 -12 -55 -5 -10 -8 -28 -7 -41 1 -12
-4 -27 -12 -33 -7 -6 -10 -15 -7 -20 3 -5 0 -9 -5 -9 -6 0 -10 -3 -9 -7 3 -14
-43 -153 -50 -153 -4 0 -9 -8 -10 -17 -2 -20 -9 -55 -13 -63 -1 -3 -3 -9 -4
-15 -2 -5 -4 -13 -5 -17 -1 -5 -4 -12 -5 -18 -1 -5 -3 -11 -5 -12 -1 -2 -3
-10 -5 -18 -10 -39 -15 -57 -24 -88 -5 -18 -10 -35 -10 -37 0 -3 -2 -18 -6
-33 -3 -15 -8 -43 -10 -62 -5 -44 -9 -62 -16 -75 -3 -5 -5 -33 -5 -62 1 -28
-1 -50 -4 -48 -8 5 -5 -65 4 -135 4 -30 8 -80 10 -112 2 -31 6 -60 10 -66 3
-5 8 -26 10 -45 3 -19 12 -52 20 -72 9 -21 16 -48 16 -61 0 -13 5 -24 10 -24
6 0 9 -3 9 -8 -3 -19 2 -33 11 -27 6 3 7 -1 4 -9 -3 -9 -1 -16 6 -16 6 0 9 -4
5 -9 -3 -5 2 -17 11 -25 8 -9 13 -16 10 -16 -9 0 33 -91 64 -137 17 -24 30
-47 30 -51 0 -15 156 -182 171 -182 3 0 19 -12 35 -26 31 -27 124 -78 124 -68
0 4 6 1 13 -5 8 -6 17 -8 20 -4 4 3 7 1 7 -5 0 -6 17 -16 38 -22 20 -6 51 -18
67 -25 27 -13 63 -26 75 -30 3 0 19 -8 35 -17 29 -16 57 -22 140 -34 22 -3 47
-8 55 -11 64 -23 614 -21 785 2 22 3 62 8 89 10 114 8 326 59 326 77 0 5 4 7
9 4 5 -3 14 1 21 9 7 8 19 15 26 15 8 0 14 4 14 10 0 5 3 9 8 8 10 -3 91 40
128 68 17 13 34 24 37 24 20 0 178 156 213 210 16 25 32 47 35 50 3 3 14 21
24 40 10 19 26 41 36 48 11 7 19 22 19 32 0 10 5 20 11 22 6 2 12 16 12 31 1
15 5 27 9 27 5 0 7 3 6 8 -1 4 3 17 10 28 6 12 8 24 5 28 -3 3 0 6 7 6 7 0 11
3 7 6 -6 6 20 102 32 119 4 6 7 23 6 40 -1 16 4 49 11 73 8 24 16 76 18 115 2
40 11 94 20 121 8 27 13 53 10 58 -3 4 0 8 6 8 6 0 8 5 5 10 -3 6 -1 10 4 10
6 0 10 3 10 8 -1 4 0 9 1 12 3 9 11 54 13 78 1 12 5 22 9 22 4 0 3 13 -2 30
-6 19 -5 32 2 36 7 5 8 2 3 -6 -5 -9 -4 -11 4 -6 8 6 9 12 2 20 -6 7 -8 16 -4
20 4 3 6 59 4 124 -6 347 -5 394 15 492 9 43 10 114 1 133 -4 9 -4 17 2 17 5
0 7 21 4 48 -8 80 -5 125 10 150 5 6 5 12 2 12 -4 0 3 13 15 30 15 21 22 48
25 94 1 35 6 69 9 75 4 6 4 11 -1 11 -4 0 -9 12 -10 28 -3 52 -11 137 -13 137
-1 0 -3 14 -5 30 -1 17 -6 62 -10 100 -4 39 -11 78 -16 88 -6 9 -7 17 -3 17 3
0 1 6 -5 14 -8 10 -9 16 -1 21 6 3 8 10 6 14 -3 4 -8 23 -11 42 -7 43 -44 119
-56 119 -6 0 -7 5 -4 10 3 6 0 10 -7 10 -7 0 -19 9 -26 21 -11 16 -19 19 -40
14 -15 -4 -42 -9 -61 -12 -63 -9 -159 -80 -221 -164 -14 -18 -46 -55 -72 -81
-27 -26 -48 -52 -48 -58 0 -5 -3 -10 -8 -10 -4 0 -20 -11 -35 -25 -15 -14 -27
-23 -27 -21 0 3 -26 -21 -57 -53 -93 -94 -121 -102 -293 -87 -41 3 -95 9 -120
12 -25 3 -70 7 -101 8 -31 2 -61 6 -67 10 -6 3 -13 3 -16 -2 -6 -9 -56 -9 -71
0 -6 4 -37 9 -70 13 -33 3 -76 9 -95 12 -19 3 -42 6 -50 7 -26 3 -88 34 -107
53 -11 11 -41 51 -68 89 -27 38 -52 71 -56 74 -4 3 -11 18 -14 33 -4 15 -11
27 -16 27 -5 0 -6 7 -3 15 4 8 2 15 -3 15 -5 0 -17 23 -28 50 -11 28 -23 50
-28 50 -4 0 -6 4 -3 9 4 5 3 11 -1 13 -5 1 -19 24 -32 51 -13 26 -28 47 -33
47 -4 0 -8 6 -8 13 0 19 -52 46 -88 45 -18 -1 -32 -5 -32 -10z"/>
</g>
</svg>
